<svg width="49" height="48" viewBox="0 0 49 48" fill="none" xmlns="http://www.w3.org/2000/svg">
<path d="M39.4667 6H8.86666C7.36666 6 6.16666 7.2 6.16666 8.55V39.3C6.16666 40.65 7.36666 41.85 8.86666 41.85H39.4667C40.9667 41.85 42.1667 40.65 42.1667 39.3V8.55C42.1667 7.2 40.9667 6 39.4667 6ZM16.8167 36.6H11.5667V19.5H16.8167V36.6ZM14.2667 17.1C12.6167 17.1 11.1167 15.75 11.1167 13.95C11.1167 12.15 12.4667 10.8 14.2667 10.8C15.9167 10.8 17.4167 12.15 17.4167 13.95C17.4167 15.75 15.9167 17.1 14.2667 17.1ZM36.9167 36.45H31.6667V28.05C31.6667 26.1 31.6667 23.4 28.8167 23.4C25.9667 23.4 25.6667 25.65 25.6667 27.75V36.3H20.4167V19.5H25.3667V21.75H25.5167C26.2667 20.4 28.0667 18.9 30.6167 18.9C36.0167 18.9 37.0667 22.5 37.0667 27.15V36.45H36.9167Z" fill="white"/>
</svg>
